<?xml version="1.0" encoding="UTF-8" standalone="no"?>
<svg width="20px" height="20px" viewBox="0 0 50 50" version="1.1" xmlns="http://www.w3.org/2000/svg" xmlns:xlink="http://www.w3.org/1999/xlink" xmlns:sketch="http://www.bohemiancoding.com/sketch/ns">
    <!-- Generator: Sketch 3.3.3 (12081) - http://www.bohemiancoding.com/sketch -->
    <title>facebook</title>
    <desc>Created with Sketch.</desc>
    <defs></defs>
    <g id="Page-1" stroke="none" stroke-width="1" fill-rule="evenodd" sketch:type="MSPage">
        <g id="facebook" sketch:type="MSLayerGroup" fill="#000000">
            <path d="M50,3.23529412 L50,46.0784314 C50,47.8431373 48.5294118,49.1176471 46.9607843,49.1176471 L34.7058824,49.1176471 L34.7058824,30.0980392 L40.8823529,30.0980392 L41.8627451,23.1372549 L34.7058824,23.1372549 L34.7058824,17.5490196 C34.7058824,15.4901961 35.6862745,14.4117647 37.745098,14.4117647 L42.3529412,14.4117647 L42.3529412,8.03921569 C42.3529412,8.03921569 40.2941176,7.74509804 37.254902,7.74509804 C30.5882353,7.74509804 27.0588235,11.5686275 27.0588235,17.0588235 L27.0588235,23.0392157 L20.8823529,23.0392157 L20.8823529,30 L27.0588235,30 L27.0588235,49.0196078 L3.92156863,49.0196078 C2.35294118,49.2156863 0.882352941,47.745098 0.882352941,45.9803922 L0.882352941,3.1372549 C0.882352941,1.56862745 2.35294118,0.0980392157 3.92156863,0.0980392157 L46.7647059,0.0980392157 C48.5294118,0.196078431 50,1.66666667 50,3.23529412 L50,3.23529412 Z" id="Shape" sketch:type="MSShapeGroup"></path>
        </g>
    </g>
</svg>