<?xml version="1.0" encoding="UTF-8" standalone="no"?>
<svg width="20px" height="20px" viewBox="0 0 50 40" version="1.1" xmlns="http://www.w3.org/2000/svg" xmlns:xlink="http://www.w3.org/1999/xlink" xmlns:sketch="http://www.bohemiancoding.com/sketch/ns">
    <!-- Generator: Sketch 3.3.3 (12081) - http://www.bohemiancoding.com/sketch -->
    <title>twitter</title>
    <desc>Created with Sketch.</desc>
    <defs></defs>
    <g id="Page-1" stroke="none" stroke-width="1" fill-rule="evenodd" sketch:type="MSPage">
        <g id="twitter" sketch:type="MSLayerGroup" fill="#000000">
            <g id="Page-1" sketch:type="MSShapeGroup">
                <g id="twitter">
                    <path d="M44.3181817,10.0952381 L44.3181817,11.4285714 C44.3181817,24.1904762 34.383117,39.1428573 16.0714286,39.1428573 C10.4220779,39.1428573 5.16233765,38 0.77922078,35.2380953 C1.55844156,35.3333333 2.33766234,35.3333333 3.21428572,35.3333333 C7.8896104,35.3333333 12.1753247,33.3333333 15.5844156,30.6666668 C11.2012987,30.6666668 7.5974026,27.7142858 6.33116882,23.9047619 C6.91558442,24 7.5,24.0952381 8.18181818,24.0952381 C9.05844155,24.0952381 10.0324675,24 10.9090909,23.7142857 C6.23376623,22.8571429 2.92207792,18.8571428 2.92207792,14.0952381 L2.92207792,14 C4.28571427,14.7619047 5.84415585,15.1428572 7.4025974,15.1428572 C4.67532467,13.3333333 2.92207792,10.3809524 2.92207792,7.04761905 C2.92207792,5.23809525 3.4090909,3.71428573 4.28571427,2.28571429 C9.25324675,8.1904762 16.4610389,11.9047619 24.7402597,12.2857143 C24.6428572,11.5238095 24.5454545,10.7619048 24.5454545,10 C24.5454545,4.66666668 29.025974,0.285714285 34.4805195,0.285714285 C37.4025975,0.285714285 39.935065,1.42857143 41.7857142,3.33333333 C43.9285715,2.85714285 46.1688312,2 48.116883,0.952380953 C47.3376622,3.23809525 45.7792207,5.14285715 43.7337663,6.47619048 C45.7792207,6.0952381 47.6298702,5.61904763 49.4805195,4.76190475 C47.922078,7.04761905 46.2662337,8.66666668 44.3181817,10.0952381 L44.3181817,10.0952381 L44.3181817,10.0952381 Z" id="Shape"></path>
                </g>
            </g>
        </g>
    </g>
</svg>