<svg width="20" height="20" viewBox="0 0 50 40" xmlns="http://www.w3.org/2000/svg"><title>twitter</title><path d="M44.318 10.095v1.334c0 12.76-9.935 27.713-28.247 27.713-5.648 0-10.908-1.143-15.29-3.905.778.095 1.558.095 2.434.095 4.676 0 8.96-2 12.37-4.666-4.383 0-7.987-2.953-9.253-6.762.586.095 1.17.19 1.852.19.876 0 1.85-.095 2.727-.38-4.676-.858-7.988-4.858-7.988-9.62V14c1.364.762 2.922 1.143 4.48 1.143-2.727-1.81-4.48-4.762-4.48-8.095 0-1.81.487-3.334 1.364-4.762 4.967 5.904 12.175 9.62 20.454 10-.097-.762-.195-1.524-.195-2.286 0-5.333 4.48-9.714 9.936-9.714 2.923 0 5.455 1.143 7.306 3.047C43.93 2.857 46.17 2 48.116.953c-.778 2.285-2.337 4.19-4.382 5.523 2.045-.38 3.896-.857 5.747-1.714-1.558 2.286-3.214 3.905-5.162 5.333z" fill-rule="evenodd"/></svg>